<?xml version="1.0" encoding="UTF-8" standalone="no" ?>
<!DOCTYPE svg PUBLIC "-//W3C//DTD SVG 1.1//EN" "http://www.w3.org/Graphics/SVG/1.1/DTD/svg11.dtd">
<svg xmlns="http://www.w3.org/2000/svg" xmlns:xlink="http://www.w3.org/1999/xlink" version="1.1" width="400" height="400" viewBox="0 0 400 400" xml:space="preserve">
<desc>Created with Fabric.js 3.6.2</desc>
<defs>
</defs>
<g transform="matrix(1.56 0 0 1.56 200 200)" id="Layer_1"  >
<path style="stroke: none; stroke-width: 1; stroke-dasharray: none; stroke-linecap: butt; stroke-dashoffset: 0; stroke-linejoin: miter; stroke-miterlimit: 4; fill: rgb(0,0,0); fill-rule: nonzero; opacity: 1;"  transform=" translate(-64, -64)" d="M 64 0 a 64 64 0 1 0 64 64 A 64 64 0 0 0 64 0 Z m 8 65 c 0 13.45 -8.41 23 -22 23 a 24 24 0 1 1 0 -48 c 6.36 0 11.22 2.78 15.32 6.61 L 59 53 a 12.32 12.32 0 0 0 -9 -4 a 15 15 0 1 0 0 30 c 9.32 0 12.46 -6.54 13 -10 H 49 V 61 H 72 A 26.34 26.34 0 0 1 72 65 Z m 30 4 H 94 v 8 H 86 V 69 H 78 V 61 h 8 V 53 h 8 v 8 h 8 Z" stroke-linecap="round" />
</g>
</svg>