<?xml version="1.0" encoding="UTF-8" standalone="no" ?>
<!DOCTYPE svg PUBLIC "-//W3C//DTD SVG 1.1//EN" "http://www.w3.org/Graphics/SVG/1.1/DTD/svg11.dtd">
<svg xmlns="http://www.w3.org/2000/svg" xmlns:xlink="http://www.w3.org/1999/xlink" version="1.1" width="400" height="400" viewBox="0 0 400 400" xml:space="preserve">
<desc>Created with Fabric.js 3.6.2</desc>
<defs>
</defs>
<g transform="matrix(6.25 0 0 6.25 200 200)" id="Icons"  >
<path style="stroke: none; stroke-width: 1; stroke-dasharray: none; stroke-linecap: butt; stroke-dashoffset: 0; stroke-linejoin: miter; stroke-miterlimit: 4; fill: rgb(0,0,0); fill-rule: nonzero; opacity: 1;"  transform=" translate(-32, -32)" d="M 42 16 H 22 a 6 6 0 0 0 -6 6 V 42 a 6 6 0 0 0 6 6 H 42 a 6 6 0 0 0 6 -6 V 22 A 6 6 0 0 0 42 16 Z M 27 37.53 a 2 2 0 0 1 -4 0 V 31.1 a 2 2 0 0 1 4 0 Z m -2.09 -9.11 a 2.12 2.12 0 0 1 -2.28 -2 a 2.14 2.14 0 0 1 2.28 -2.08 a 2.15 2.15 0 0 1 2.27 2.08 A 2.12 2.12 0 0 1 24.91 28.42 Z M 41 37.54 a 2 2 0 0 1 -2.24 2 A 2.11 2.11 0 0 1 37 37.44 V 33.26 s -0.24 -1.34 -1.36 -1.34 a 5.06 5.06 0 0 0 -1.64 0.37 v 5.13 a 2.13 2.13 0 0 1 -1.74 2.08 a 2 2 0 0 1 -2.26 -2 V 31 a 1.8 1.8 0 0 1 1.81 -1.83 a 1.82 1.82 0 0 1 1.78 1.32 a 5.69 5.69 0 0 1 3.82 -1.38 C 39.79 29.13 41 30.44 41 33 Z" stroke-linecap="round" />
</g>
</svg>