<?xml version="1.0" standalone="no"?>
<!DOCTYPE svg PUBLIC "-//W3C//DTD SVG 20010904//EN"
 "http://www.w3.org/TR/2001/REC-SVG-20010904/DTD/svg10.dtd">
<svg version="1.0" xmlns="http://www.w3.org/2000/svg"
 width="1280.000000pt" height="1280.000000pt" viewBox="0 0 1280.000000 1280.000000"
 preserveAspectRatio="xMidYMid meet">
<metadata>
Created by potrace 1.16, written by Peter Selinger 2001-2019
</metadata>
<g transform="translate(0.000000,1280.000000) scale(0.100000,-0.100000)"
fill="#000000" stroke="none">
<path d="M3473 10159 c-18 -5 -33 -14 -33 -19 0 -6 -8 -10 -17 -10 -27 0 -82
-37 -94 -63 -5 -12 -16 -33 -24 -47 -8 -14 -15 -35 -15 -48 0 -13 -4 -20 -10
-17 -6 3 -10 -5 -10 -19 0 -14 -4 -28 -10 -31 -5 -3 -10 -14 -10 -24 0 -27
-20 -39 -78 -47 -42 -5 -52 -4 -52 8 0 40 -64 118 -98 118 -19 0 -72 -32 -67
-40 3 -5 -5 -14 -17 -21 -13 -7 -32 -21 -43 -33 -47 -48 -169 -152 -196 -167
-15 -9 -26 -19 -22 -22 3 -4 -2 -9 -11 -13 -9 -3 -16 -12 -16 -18 0 -7 -5 -17
-12 -24 -6 -6 -13 -22 -15 -34 -1 -13 -5 -33 -8 -45 -3 -13 -1 -23 3 -23 5 0
15 -27 22 -61 11 -52 15 -133 21 -420 1 -42 -8 -82 -39 -165 -22 -60 -49 -126
-61 -147 -11 -21 -21 -44 -21 -52 0 -9 -4 -23 -10 -33 -14 -24 -35 -79 -39
-100 0 -4 -12 -9 -25 -10 -20 -1 -32 10 -63 58 -49 76 -68 83 -105 40 -37 -45
-42 -93 -32 -295 12 -244 11 -275 -9 -314 -9 -19 -17 -39 -17 -45 0 -18 -41
-89 -64 -113 -12 -12 -31 -39 -42 -60 -10 -21 -22 -39 -26 -41 -5 -2 -8 -10
-8 -18 0 -17 -47 -40 -81 -38 -14 0 -57 11 -95 22 -52 16 -78 31 -107 61 -49
51 -73 56 -147 31 -32 -11 -85 -20 -117 -20 -65 -1 -75 -6 -121 -70 -52 -71
-133 -150 -171 -167 -23 -9 -91 -18 -186 -23 -149 -8 -151 -8 -260 -55 -60
-26 -135 -56 -165 -67 -87 -33 -129 -64 -232 -171 -92 -96 -99 -105 -145 -216
-66 -160 -66 -197 2 -306 49 -77 53 -81 133 -120 117 -56 120 -85 19 -150 -23
-14 -58 -50 -77 -78 -19 -28 -54 -64 -77 -80 -39 -26 -43 -32 -43 -70 0 -26 8
-51 20 -67 11 -14 20 -30 20 -37 0 -7 8 -16 17 -22 10 -5 18 -18 18 -28 0 -11
6 -17 16 -15 25 4 39 -21 46 -78 4 -39 2 -54 -8 -61 -10 -6 -13 -27 -11 -76 6
-161 6 -231 -2 -453 -9 -257 -8 -265 57 -445 24 -66 32 -108 58 -317 9 -70 17
-97 42 -135 17 -27 34 -50 38 -53 9 -8 18 -46 43 -191 22 -129 25 -139 70
-204 25 -37 49 -80 52 -94 18 -80 38 -130 64 -166 38 -51 75 -128 90 -185 12
-45 49 -117 73 -142 18 -19 43 -74 61 -139 9 -31 35 -80 57 -110 22 -30 57
-85 76 -124 20 -38 55 -91 80 -117 24 -26 53 -69 64 -95 11 -27 37 -68 58 -93
20 -25 57 -72 81 -105 24 -33 60 -77 79 -98 20 -21 46 -56 57 -77 19 -36 119
-151 191 -220 14 -14 44 -44 67 -68 22 -24 64 -67 91 -95 28 -29 61 -68 75
-89 13 -20 37 -44 54 -54 26 -15 143 -123 206 -191 14 -14 42 -43 64 -62 21
-20 64 -62 95 -93 34 -35 77 -66 111 -81 30 -13 69 -37 85 -54 17 -16 64 -54
105 -85 41 -31 86 -66 100 -78 14 -12 55 -37 91 -55 36 -19 80 -49 97 -69 17
-20 66 -53 113 -76 45 -22 100 -57 122 -76 22 -20 65 -48 96 -62 31 -14 88
-47 126 -72 39 -26 102 -59 140 -74 39 -14 95 -44 125 -67 65 -49 94 -62 191
-83 74 -17 159 -53 159 -67 0 -19 76 -50 186 -78 76 -18 140 -41 170 -59 53
-33 101 -49 236 -80 48 -11 121 -36 163 -56 88 -41 167 -59 387 -86 206 -26
251 -35 365 -71 95 -29 247 -49 388 -49 89 0 134 26 135 77 0 35 -62 186 -87
213 -13 14 -40 59 -60 100 -20 41 -49 96 -64 122 -16 26 -37 69 -47 95 -65
161 -79 193 -107 243 -16 30 -46 91 -64 135 -19 44 -46 97 -60 118 -53 79 -70
121 -71 172 0 28 -7 102 -16 165 -9 65 -14 151 -12 197 4 74 7 85 31 107 l27
25 25 -25 c14 -14 25 -28 25 -32 0 -10 73 -82 83 -82 4 0 13 -4 20 -10 7 -5
27 -22 45 -36 19 -15 38 -37 43 -48 5 -12 13 -28 18 -36 5 -8 15 -28 22 -43
l13 -28 23 28 c22 26 23 34 17 123 -10 159 -11 168 -37 245 -35 106 -49 210
-37 268 9 43 8 65 -5 118 -53 210 -57 265 -25 294 11 10 20 24 20 32 0 13 30
18 84 15 39 -3 50 -14 64 -59 6 -21 29 -72 51 -113 95 -177 104 -204 126 -365
9 -66 23 -153 32 -194 14 -68 14 -134 -1 -209 -8 -37 -49 -156 -58 -168 -14
-19 -22 -143 -11 -167 57 -125 114 -226 154 -273 38 -45 55 -78 80 -153 18
-53 43 -118 56 -146 34 -70 57 -141 88 -274 53 -223 90 -298 159 -321 39 -12
61 -6 99 28 19 18 27 36 27 59 0 30 -5 35 -58 62 -61 31 -79 47 -76 69 1 6 2
21 3 31 0 10 26 44 56 74 57 56 67 86 45 127 -11 20 -49 239 -57 326 -4 39 0
61 16 93 26 50 45 55 157 48 46 -2 84 -1 84 4 0 5 6 6 14 3 8 -3 31 -1 52 5
25 7 42 7 48 1 6 -6 26 -10 46 -10 20 0 42 -6 49 -12 8 -7 11 -8 8 -2 -3 6 0
11 8 11 8 0 13 -3 13 -6 -3 -14 15 -61 23 -61 5 0 9 -7 9 -15 0 -8 3 -15 8
-15 7 0 17 -16 47 -80 23 -47 14 -89 -33 -160 -22 -32 -49 -92 -61 -132 -12
-40 -38 -109 -58 -153 -20 -44 -40 -93 -45 -110 -14 -45 -38 -135 -48 -179
-15 -73 20 -106 116 -109 73 -2 302 29 354 48 61 22 188 50 285 64 202 27 234
33 290 51 33 10 87 30 120 44 33 14 106 34 162 45 119 25 132 29 238 82 51 25
116 47 180 60 104 21 167 46 202 78 28 27 88 56 154 75 31 9 87 37 124 62 37
25 101 58 142 71 42 14 104 45 139 69 35 24 92 53 126 65 82 27 94 34 149 83
25 23 70 54 100 70 30 16 72 46 94 66 22 21 70 53 106 70 37 18 81 45 99 62
18 16 64 55 104 86 39 31 80 65 91 75 11 10 52 38 90 62 39 25 79 58 90 74 10
16 42 47 71 67 28 21 59 51 68 68 9 17 36 45 59 63 45 34 195 183 289 286 57
62 260 269 308 312 14 13 34 47 45 75 11 29 44 80 73 114 69 78 141 187 153
228 15 54 11 77 -26 137 -32 51 -36 66 -40 142 -3 76 -6 86 -30 106 -14 13
-33 23 -41 23 -25 0 -72 29 -78 48 -8 23 16 82 41 103 10 9 34 24 53 34 45 23
70 56 97 129 29 79 54 231 46 284 -7 54 -54 98 -115 107 -24 4 -96 3 -161 -2
-107 -8 -129 -6 -215 14 -54 13 -126 27 -162 33 -85 13 -115 26 -137 59 -10
14 -18 28 -18 31 0 3 -10 15 -22 28 -27 26 -77 29 -141 7 -66 -23 -191 -24
-224 -1 -16 10 -28 25 -28 32 0 8 -4 14 -9 14 -5 0 -12 18 -16 40 -5 27 -12
40 -23 40 -8 0 -13 3 -9 6 9 10 89 6 96 -4 3 -4 27 -17 53 -28 27 -10 48 -22
48 -26 0 -4 18 -11 40 -14 22 -4 40 -10 40 -14 0 -15 114 -1 123 15 4 8 17 15
28 15 21 0 78 57 79 78 0 6 7 12 15 12 10 0 15 10 15 31 0 17 7 43 15 57 19
36 45 145 45 192 0 21 4 41 9 44 21 13 19 90 -3 160 -13 39 -26 84 -30 99 -9
37 -53 105 -87 134 -25 21 -36 51 -45 128 -2 17 -15 64 -28 105 -13 41 -31
100 -40 130 -8 30 -24 87 -35 125 -11 39 -31 147 -45 240 -14 94 -38 218 -55
275 -16 58 -39 152 -51 210 -11 58 -30 124 -41 147 -11 23 -27 85 -35 138 -13
87 -27 127 -80 227 -8 14 -14 32 -14 40 0 14 -53 139 -82 193 -41 76 -93 84
-127 17 -10 -20 -33 -89 -51 -152 -40 -147 -44 -244 -11 -345 22 -70 37 -161
48 -308 6 -84 -9 -158 -52 -252 -91 -201 -134 -361 -141 -525 -7 -141 -19
-177 -80 -234 -20 -19 -57 -42 -83 -51 -98 -35 -111 -51 -136 -174 -18 -87
-16 -84 -73 -141 -27 -28 -55 -72 -73 -115 -24 -56 -44 -84 -104 -142 -41 -40
-75 -77 -75 -84 0 -16 -52 -64 -65 -60 -5 1 -41 -13 -80 -32 -38 -19 -92 -45
-120 -58 -27 -13 -61 -30 -75 -40 -16 -10 -58 -19 -115 -23 -82 -6 -103 -4
-215 24 -69 18 -131 37 -139 43 -8 7 -17 11 -20 10 -7 -3 -38 5 -66 17 -67 28
-115 43 -154 47 -23 2 -63 13 -88 24 -24 10 -51 19 -60 19 -15 0 -215 102
-243 124 -8 7 -28 18 -43 26 -16 8 -63 47 -105 86 -96 89 -187 164 -201 164
-5 0 -14 6 -18 13 -4 8 -16 16 -25 20 -17 6 -68 78 -68 97 0 5 -4 10 -10 10
-5 0 -10 7 -10 16 0 9 -6 30 -14 47 -16 40 -47 210 -53 297 -2 36 1 92 6 125
6 33 16 107 22 165 7 66 21 135 40 190 17 47 34 110 39 140 25 157 42 305 45
390 2 52 8 117 13 144 11 56 -2 124 -26 144 -32 25 -250 5 -315 -30 -33 -17
-127 -96 -146 -121 -35 -49 -41 -69 -41 -147 0 -67 -3 -80 -16 -80 -10 0 -14
-6 -11 -14 3 -8 -5 -19 -19 -26 -13 -8 -24 -17 -24 -22 0 -5 -7 -5 -15 0 -17
9 -172 -8 -245 -28 -25 -6 -62 -22 -82 -36 -21 -13 -44 -24 -53 -24 -8 0 -15
-4 -15 -8 0 -4 -18 -13 -41 -19 -35 -9 -49 -7 -105 14 -48 19 -64 30 -64 44 0
11 -8 23 -17 26 -25 10 -43 29 -43 47 0 8 -4 18 -10 21 -5 3 -10 17 -10 29 0
13 -6 29 -14 35 -7 6 -19 31 -26 56 -7 25 -19 50 -26 56 -8 6 -14 17 -14 24 0
7 -9 15 -21 18 -11 3 -23 14 -25 24 -3 11 -25 28 -50 39 -24 10 -44 25 -44 32
0 11 -14 14 -77 16 -11 1 -25 4 -29 9 -4 4 -20 7 -34 7 -15 0 -33 7 -41 16 -7
8 -31 25 -53 36 -22 11 -46 27 -54 34 -7 8 -21 14 -31 14 -17 0 -36 55 -46
133 -1 16 -10 36 -19 46 -9 10 -16 22 -16 28 0 5 -12 38 -26 73 -17 44 -28 95
-35 169 -9 103 -32 194 -58 225 -7 8 -10 19 -7 24 6 10 -46 54 -76 65 -10 3
-18 11 -18 16 0 5 -21 19 -46 31 -51 25 -57 35 -90 164 -13 49 -31 97 -40 107
-24 27 -54 134 -54 196 0 37 6 63 19 81 33 48 35 80 7 113 -31 36 -89 214 -81
246 7 29 21 32 186 37 152 6 209 21 228 62 19 43 13 71 -24 107 -43 42 -72 48
-222 48 -148 0 -194 -19 -228 -93 -26 -56 -47 -70 -138 -94 -33 -8 -70 -22
-82 -30 -25 -16 -74 -143 -72 -182 1 -15 24 -43 61 -76 65 -57 67 -69 21 -119
-50 -53 -63 -131 -35 -211 5 -16 10 -59 10 -95 1 -40 6 -73 14 -84 9 -12 46
-25 108 -37 96 -20 100 -22 155 -96 13 -17 46 -38 83 -53 62 -25 61 -24 75
-93 2 -10 -1 -18 -6 -18 -5 0 -9 -10 -9 -22 -1 -43 -44 -112 -81 -130 -33 -17
-40 -17 -94 -3 -36 10 -79 31 -110 54 -27 21 -69 50 -92 64 -22 14 -63 56 -90
93 -26 37 -55 74 -63 83 -9 9 -25 32 -37 52 -12 19 -34 46 -48 59 -37 35 -49
62 -69 160 -20 92 -41 156 -59 180 -11 13 -13 31 -8 67 0 6 9 10 19 9 43 -7
101 40 102 82 0 28 -18 64 -29 58 -4 -3 -27 -6 -50 -7 -25 -2 -46 -9 -51 -18
-7 -13 -12 -14 -37 -1 -15 7 -37 24 -48 37 -29 33 -87 38 -112 10 -34 -37 -45
-81 -40 -154 4 -63 -6 -100 -33 -123 -4 -3 -22 -27 -41 -54 -19 -27 -45 -65
-60 -85 -14 -20 -28 -43 -32 -51 -4 -8 -23 -44 -42 -80 -19 -36 -35 -72 -35
-81 0 -9 -9 -28 -20 -42 -11 -14 -20 -30 -20 -36 0 -6 -4 -11 -10 -11 -5 0
-10 -6 -10 -13 0 -21 -67 -80 -80 -72 -9 5 -10 1 -6 -13 4 -12 2 -23 -5 -28
-8 -5 -10 -3 -4 7 4 8 -5 2 -21 -12 -16 -14 -40 -31 -54 -37 -14 -7 -33 -18
-43 -24 -12 -9 -20 -10 -25 -2 -4 5 -25 11 -46 12 -22 2 -44 5 -49 9 -5 3 -25
8 -46 10 -34 5 -121 58 -121 74 0 4 -10 11 -22 15 -12 3 -27 12 -33 18 -48 53
-53 64 -62 139 -4 31 -2 37 14 37 10 0 23 4 28 8 6 5 29 15 53 22 23 7 42 19
42 25 0 42 -73 125 -110 125 -27 0 -26 36 1 51 12 6 42 12 68 14 122 8 148 16
193 59 27 25 55 66 73 106 l29 65 1 230 c1 274 -6 256 145 406 86 86 98 101
103 140 8 57 37 115 81 163 25 28 38 54 46 95 23 115 41 161 65 174 13 6 24
15 24 20 1 4 7 17 16 30 36 55 67 336 44 405 -6 20 -17 44 -24 52 -7 8 -15 26
-17 40 -1 14 -10 26 -20 28 -20 4 -34 -38 -42 -125 -7 -72 -45 -160 -86 -197
-20 -17 -45 -27 -82 -31 -116 -14 -156 -25 -172 -50 -9 -13 -16 -31 -16 -39 0
-7 -7 -16 -15 -20 -8 -3 -14 -11 -13 -18 5 -23 -70 -14 -94 12 l-21 22 22 61
c15 43 18 63 10 68 -8 5 -8 16 1 43 9 29 16 36 38 36 16 0 32 8 40 20 15 24
52 27 52 4 0 -14 8 -16 41 -11 22 3 43 8 47 11 11 11 -36 46 -54 39 -13 -5
-15 -2 -9 16 4 14 2 23 -9 27 -9 3 -16 12 -16 20 0 8 -9 14 -19 14 -11 0 -23
5 -26 10 -3 6 -2 10 4 10 6 0 8 18 5 43 -6 55 -12 70 -24 62 -6 -4 -10 8 -10
28 0 36 -18 98 -31 107 -4 3 -21 34 -37 70 -17 36 -40 73 -51 83 -23 18 -67
21 -118 6z m-58 -798 c0 -8 6 -16 13 -18 6 -3 12 3 12 12 0 36 25 6 28 -33 3
-34 0 -42 -14 -42 -9 0 -34 -18 -55 -41 -20 -22 -40 -36 -43 -30 -16 26 -34
-4 -39 -67 -5 -47 -12 -72 -27 -86 -11 -12 -33 -41 -49 -64 -15 -24 -31 -42
-34 -40 -3 1 -16 -11 -29 -27 -47 -62 -79 -97 -115 -126 -18 -14 -23 -14 -47
-2 -26 14 -27 18 -23 69 4 51 8 59 61 110 31 30 55 58 54 62 -4 14 25 87 45
115 12 15 29 27 40 27 35 0 77 66 77 120 0 17 4 29 9 25 5 -3 12 4 16 15 11
34 120 53 120 21z m568 -2384 c21 -1 42 -9 47 -16 4 -8 15 -11 24 -8 23 9 66
-10 66 -28 0 -9 8 -19 18 -22 9 -4 19 -10 22 -14 3 -4 24 -9 46 -10 35 -2 45
-8 65 -38 13 -20 32 -44 42 -54 15 -15 17 -28 11 -80 -4 -34 -3 -59 1 -55 15
14 35 -21 35 -60 0 -41 11 -57 45 -63 10 -2 30 -20 42 -39 12 -19 28 -41 34
-49 14 -15 13 -124 -1 -149 -5 -9 -11 -29 -15 -44 -3 -16 -11 -28 -17 -28 -7
0 -35 -24 -62 -52 -36 -37 -59 -53 -79 -54 -16 -1 -37 -10 -48 -20 -18 -16
-19 -16 -19 0 0 13 -5 16 -20 11 -15 -5 -24 1 -38 24 -10 17 -22 28 -25 25 -4
-4 -9 2 -13 12 -16 51 -49 114 -59 114 -14 0 -65 94 -65 120 0 10 -7 23 -15
30 -8 6 -17 21 -21 33 -4 12 -17 29 -29 39 -32 25 -39 76 -19 124 9 21 19 34
21 27 3 -10 9 -10 24 0 27 17 23 30 -16 48 -19 9 -32 12 -29 8 3 -5 0 -9 -5
-9 -6 0 -11 12 -11 26 0 20 -8 29 -40 42 -23 10 -40 24 -40 33 0 9 -10 20 -22
24 l-23 8 23 4 c31 6 28 21 -5 25 -16 2 -27 6 -25 11 1 4 5 7 8 6 13 -1 24 26
24 59 0 17 5 32 11 32 5 0 8 4 5 8 -4 7 47 7 147 -1z m-2202 -174 c55 -61 147
-202 175 -268 15 -38 34 -76 41 -83 7 -7 13 -16 13 -20 0 -4 12 -20 26 -37 38
-43 75 -104 85 -137 11 -41 -15 -93 -55 -109 -17 -7 -39 -19 -48 -27 -15 -13
-15 -16 3 -45 53 -88 73 -142 74 -202 0 -60 0 -60 -31 -63 -25 -2 -42 6 -84
42 -29 25 -65 48 -81 51 -54 12 -118 64 -141 116 -13 27 -26 49 -30 49 -3 0
-13 6 -20 13 -7 7 -32 25 -56 39 -23 13 -53 39 -65 55 -22 30 -57 60 -156 136
-108 82 -168 226 -128 310 11 26 65 58 172 103 22 9 54 26 70 38 27 20 75 45
115 59 8 3 33 6 56 6 32 1 45 -5 65 -26z m3556 -1819 c5 -13 -27 -122 -53
-181 -8 -17 -14 -34 -14 -37 0 -19 -56 -86 -85 -102 -19 -10 -32 -21 -30 -25
5 -7 -68 -19 -114 -19 -65 0 -112 136 -73 216 18 39 80 86 142 107 25 8 71 29
103 46 50 26 61 29 88 19 17 -6 33 -17 36 -24z m-172 -470 c47 -22 69 -72 61
-137 -8 -55 -21 -85 -45 -104 -40 -31 -74 0 -105 94 -24 74 -23 109 4 138 27
29 40 31 85 9z m1292 -37 c18 -23 52 -63 77 -88 68 -71 77 -129 32 -194 -49
-70 -97 -96 -213 -115 -111 -18 -153 4 -155 82 -1 50 18 97 72 178 21 30 49
78 63 107 27 53 61 85 81 77 6 -3 25 -24 43 -47z m2786 -261 c2 3 11 -6 20
-20 20 -29 9 -77 -28 -127 -14 -19 -28 -42 -31 -51 -4 -10 -13 -18 -20 -18 -8
0 -14 -5 -14 -12 0 -9 -3 -9 -11 -1 -16 16 -50 -27 -43 -54 7 -25 -17 -36 -51
-23 -24 9 -35 30 -15 30 6 0 10 12 10 26 0 17 6 28 20 31 11 3 20 10 20 16 0
6 6 18 13 26 16 19 37 88 37 122 0 12 10 33 21 45 17 18 26 21 44 14 13 -5 25
-7 28 -4z m650 -159 c14 -5 16 -14 11 -44 -3 -21 -6 -45 -6 -53 0 -9 -17 -36
-39 -60 -21 -24 -39 -47 -39 -52 0 -4 -5 -8 -10 -8 -6 0 -37 -17 -68 -37 -76
-50 -100 -60 -142 -57 -114 9 -183 45 -177 92 2 18 12 29 32 35 66 22 235 121
235 137 0 13 75 60 120 76 31 11 37 10 50 -5 8 -10 23 -21 33 -24z m-5990 -51
c17 -36 41 -156 53 -261 3 -33 22 -112 41 -175 44 -145 63 -232 63 -292 0
-106 -40 -138 -171 -138 -119 0 -175 19 -231 77 -42 45 -60 60 -98 83 -9 6
-14 25 -14 55 0 37 4 50 23 64 23 18 24 17 68 -31 70 -74 91 -64 133 62 18 53
24 100 30 255 5 120 14 206 23 235 38 113 51 125 80 66z m6311 -378 c17 -66
-12 -102 -94 -113 -89 -12 -168 42 -125 85 17 16 131 47 181 49 25 1 33 -4 38
-21z m-2184 -43 c21 -15 67 -35 101 -46 34 -11 67 -23 73 -28 6 -5 57 -12 114
-16 90 -6 102 -5 102 9 0 9 8 16 20 16 11 0 20 -6 20 -13 0 -8 11 -19 25 -25
27 -13 34 -42 10 -42 -8 0 -15 -9 -15 -20 0 -24 -21 -34 -67 -34 -18 0 -33 -4
-33 -8 0 -4 -11 -8 -25 -8 -14 0 -25 3 -25 8 0 4 -20 8 -45 9 -25 1 -57 3 -72
4 -16 2 -41 0 -58 -4 -79 -16 -201 -28 -243 -23 -26 3 -39 3 -29 0 9 -3 17 -9
17 -14 0 -12 -54 -20 -61 -8 -7 11 -79 -10 -79 -22 0 -4 18 -13 40 -20 22 -7
40 -17 40 -21 0 -4 8 -5 19 -2 10 2 38 -1 62 -7 24 -7 86 -13 138 -15 51 -2
96 -7 100 -12 7 -10 27 -12 116 -13 86 0 125 -17 125 -52 0 -17 -7 -31 -16
-35 -8 -3 -13 -12 -10 -20 4 -9 -2 -17 -15 -20 -11 -3 -18 -11 -15 -19 5 -13
-56 -84 -73 -84 -5 0 -12 -9 -16 -20 -3 -11 -10 -19 -14 -17 -14 4 -71 -62
-71 -82 0 -11 -4 -21 -10 -23 -5 -1 -11 -16 -13 -33 -5 -38 -29 -105 -38 -105
-4 0 -12 -13 -19 -30 -7 -16 -16 -30 -20 -30 -15 0 -17 -65 -5 -119 13 -52 12
-55 -11 -80 -14 -14 -41 -51 -62 -81 -41 -61 -94 -120 -108 -120 -5 0 -24 -21
-43 -45 -18 -25 -38 -45 -43 -45 -5 0 -6 -4 -3 -10 3 -5 -1 -10 -10 -10 -17 0
-147 -129 -140 -140 2 -3 -11 -12 -28 -20 -18 -7 -34 -16 -37 -19 -3 -3 -14
-11 -24 -17 -11 -5 -20 -19 -21 -30 -3 -31 -16 -64 -26 -64 -5 0 -9 -9 -9 -20
0 -11 -7 -20 -15 -20 -9 0 -20 -12 -26 -27 -6 -16 -13 -23 -17 -16 -4 6 -25
13 -47 16 -98 15 -114 20 -142 49 -32 34 -34 56 -22 278 7 121 23 200 41 200
4 0 8 9 8 20 0 27 10 25 43 -10 24 -25 37 -30 73 -30 31 0 44 4 44 14 0 8 17
16 43 21 45 7 46 6 -25 34 -21 7 -18 10 22 19 l45 10 -62 1 c-63 1 -73 7 -51
29 16 16 28 15 28 -3 0 -23 18 -18 36 9 8 14 30 34 47 45 63 40 71 46 104 79
36 36 40 53 21 74 -20 22 -58 95 -58 112 0 8 -10 25 -23 38 -36 37 -65 94 -72
140 -3 24 -11 55 -17 70 -5 15 -8 34 -5 43 4 8 2 17 -4 21 -6 3 -8 13 -5 21 3
8 2 22 -3 32 -14 25 9 102 37 127 13 12 42 27 63 34 21 7 39 20 39 27 0 12 9
13 40 8 35 -6 40 -4 40 12 0 23 -36 48 -44 30 -2 -7 -4 -3 -3 8 2 28 -12 95
-25 122 -15 30 -14 86 1 91 6 2 18 11 27 19 8 9 29 17 46 19 17 2 34 7 37 10
3 4 66 4 139 1 124 -5 136 -7 172 -32z m2840 -44 c82 -24 161 -71 214 -128 28
-30 76 -72 106 -93 67 -47 110 -87 110 -103 0 -7 6 -24 14 -39 18 -33 26 -94
19 -131 -4 -19 -18 -35 -47 -51 -54 -31 -70 -34 -211 -41 -149 -8 -196 -18
-258 -56 -27 -17 -88 -48 -136 -70 -47 -22 -106 -57 -131 -78 -25 -21 -63 -48
-85 -59 -56 -29 -176 -156 -211 -222 -16 -30 -45 -71 -64 -91 -27 -27 -43 -60
-68 -136 -18 -56 -44 -116 -57 -135 -75 -103 -91 -171 -100 -433 -5 -133 -11
-199 -22 -221 -21 -46 -146 -102 -243 -110 -39 -3 -96 -14 -125 -24 -74 -25
-118 -31 -275 -34 -147 -3 -251 -24 -446 -90 -54 -18 -152 -45 -217 -60 -77
-18 -155 -45 -220 -76 -56 -26 -120 -53 -142 -60 -57 -18 -105 -44 -143 -79
-32 -28 -126 -71 -156 -71 -16 0 -70 -21 -144 -57 -30 -15 -76 -28 -103 -31
-43 -4 -49 -2 -49 14 0 11 9 33 20 49 11 17 31 53 45 80 13 28 37 58 52 67 16
9 55 44 88 77 33 34 65 61 72 61 6 0 56 44 111 99 68 68 101 108 105 129 11
52 87 199 152 289 30 43 207 151 271 166 75 18 102 32 134 70 14 17 82 89 153
161 120 124 216 223 333 347 29 30 64 74 80 99 15 25 44 61 65 80 20 19 54 68
74 108 54 105 183 232 288 282 42 20 96 55 120 76 23 22 69 55 102 73 55 31
275 225 275 242 0 24 58 99 88 113 29 14 107 70 122 87 17 20 57 24 217 24
116 -1 194 -5 223 -14z m-5384 -199 c6 -4 16 -17 23 -30 14 -27 -4 -134 -38
-220 -26 -64 -26 -82 -1 -152 24 -67 25 -171 4 -260 -15 -64 -37 -110 -52
-110 -10 0 -47 75 -56 112 -3 14 -20 41 -38 58 -28 28 -36 31 -71 26 -21 -4
-53 -14 -70 -23 -37 -18 -132 -22 -149 -5 -17 17 -13 101 6 159 9 27 39 76 66
109 28 32 65 79 83 104 28 38 82 102 181 213 19 20 34 27 63 27 21 0 43 -4 49
-8z"/>
<path d="M7340 8760 c-8 -4 -41 -19 -73 -32 -103 -41 -130 -88 -92 -162 9 -16
13 -38 9 -50 -14 -43 -34 -51 -138 -57 -74 -4 -113 -11 -146 -27 -71 -34 -113
-60 -122 -77 -5 -8 -15 -15 -22 -15 -13 0 -26 -41 -26 -80 0 -21 27 -52 58
-69 32 -17 176 -25 246 -13 58 9 136 -1 136 -18 0 -14 93 -28 150 -23 49 5 61
11 107 54 57 54 68 57 99 31 30 -24 49 -65 70 -152 9 -41 22 -78 27 -81 5 -4
14 -16 20 -27 7 -11 26 -40 42 -64 17 -23 36 -61 44 -83 52 -153 99 -205 186
-205 44 0 125 38 125 59 0 9 47 30 130 60 104 36 126 46 215 99 50 29 116 77
147 106 31 29 81 67 111 84 30 17 68 49 84 71 32 46 50 54 153 70 71 11 180
55 180 73 0 4 5 8 12 8 6 0 19 6 27 14 9 7 48 18 87 24 77 11 135 33 172 65
28 26 28 35 -5 63 -82 70 -278 47 -313 -36 -23 -56 -54 -67 -195 -71 -133 -3
-138 -2 -132 26 3 21 -3 31 -28 51 -32 24 -34 25 -71 9 -21 -9 -45 -22 -54
-30 -39 -36 -246 -71 -314 -53 -41 10 -106 69 -106 96 0 21 -120 134 -135 128
-7 -2 -16 2 -19 10 -3 8 -14 14 -25 14 -11 0 -26 7 -35 15 -8 9 -19 15 -23 13
-24 -5 -123 22 -182 51 -26 12 -35 13 -38 4 -3 -7 -11 -13 -18 -13 -8 0 -19
-9 -25 -20 -6 -11 -15 -20 -21 -20 -5 0 -19 -9 -31 -20 -11 -10 -35 -26 -52
-34 -17 -8 -45 -29 -61 -46 -44 -44 -88 -64 -130 -56 -41 8 -69 51 -59 91 6
25 55 68 82 72 8 1 25 12 38 24 19 17 24 33 24 69 0 73 -40 109 -90 80z"/>
<path d="M10066 7940 c4 -8 8 -22 9 -30 0 -8 6 -33 12 -55 7 -22 22 -85 34
-140 39 -182 63 -237 100 -232 33 5 41 23 47 97 7 96 -14 232 -40 266 -26 33
-96 77 -109 68 -6 -3 -22 5 -36 17 -15 13 -22 17 -17 9z"/>
<path d="M7524 7430 c-22 -3 -65 -18 -95 -33 -51 -25 -59 -26 -117 -16 -35 5
-67 7 -72 4 -24 -15 -63 -99 -64 -137 -1 -37 4 -45 43 -77 25 -20 69 -62 99
-93 31 -32 73 -70 96 -85 22 -16 48 -36 58 -45 28 -28 64 -32 116 -13 110 40
144 33 285 -62 l78 -52 77 2 c68 2 83 -1 127 -26 72 -42 139 -66 224 -84 42
-8 81 -19 86 -23 10 -8 80 -15 127 -12 40 3 102 63 117 114 37 121 43 138 52
138 5 0 8 3 7 8 -1 4 8 28 21 54 21 43 21 48 7 75 -32 59 -52 74 -136 102
-143 48 -182 56 -268 56 -82 0 -84 -1 -113 -33 -49 -55 -87 -65 -274 -76 -58
-4 -83 -3 -70 3 18 9 17 10 -9 10 -16 1 -26 4 -23 8 4 3 -1 12 -11 19 -9 7
-17 18 -17 26 0 7 -9 12 -20 11 -11 -1 -14 0 -7 3 14 7 16 40 3 48 -5 3 -14
28 -21 55 -6 26 -23 63 -38 80 -24 29 -36 33 -102 42 -41 5 -86 11 -100 12
-14 2 -43 1 -66 -3z"/>
<path d="M9395 7024 c-32 -8 -77 -25 -127 -48 -56 -25 -78 -66 -93 -174 -17
-123 3 -217 57 -261 27 -22 87 -48 131 -56 67 -14 154 -41 227 -71 149 -62
161 -66 210 -59 52 7 96 41 106 80 3 14 10 25 14 25 19 0 36 185 19 196 -5 3
-9 14 -9 24 0 10 -6 25 -12 32 -7 7 -19 31 -27 53 -14 42 -49 97 -64 104 -5 2
-21 14 -36 27 -63 57 -121 95 -167 109 -51 16 -194 28 -229 19z"/>
<path d="M8540 6045 c-127 -37 -146 -43 -132 -44 7 -1 10 -5 7 -11 -3 -5 -1
-10 5 -10 6 0 14 -8 17 -17 22 -60 85 -109 177 -137 36 -11 68 -28 80 -44 12
-14 38 -43 58 -65 l38 -39 62 7 c35 4 132 9 217 10 148 3 155 2 172 -19 10
-11 18 -29 19 -38 0 -9 4 -19 8 -22 5 -3 8 -74 8 -158 -1 -177 -1 -176 -89
-134 -28 13 -103 36 -164 51 -62 14 -136 37 -163 51 -96 48 -156 63 -308 74
-81 6 -190 15 -242 20 -52 6 -122 13 -154 16 -33 4 -67 8 -75 9 -9 2 -20 4
-24 4 -5 1 -5 6 -2 11 3 6 -1 10 -10 10 -12 0 -10 8 10 40 14 22 25 44 25 49
0 10 13 34 75 146 15 28 53 76 83 107 35 36 53 62 49 72 -3 8 -1 17 6 19 7 2
9 8 5 12 -4 4 -15 4 -25 -1 -10 -4 -22 -9 -28 -9 -34 -5 -71 -19 -80 -30 -10
-12 -177 -77 -205 -79 -33 -3 -188 -121 -201 -152 -4 -13 -6 -49 -4 -80 4 -48
10 -63 36 -90 27 -28 77 -50 103 -45 32 6 59 -34 72 -109 4 -25 63 -67 108
-78 22 -6 79 -13 126 -17 108 -8 246 -32 285 -50 17 -8 77 -25 135 -39 178
-42 264 -75 350 -131 40 -27 54 -30 120 -30 53 0 84 5 105 17 17 10 38 20 47
24 9 3 21 18 27 33 6 14 25 41 42 59 29 31 33 33 77 25 91 -15 182 -1 190 29
3 11 10 17 19 14 21 -8 43 53 39 108 -3 42 -9 51 -93 133 -49 48 -102 108
-118 133 -45 69 -95 110 -133 110 -10 0 -24 11 -30 25 -6 14 -16 25 -22 25 -5
0 -10 6 -10 14 0 15 -56 76 -70 76 -6 0 -10 4 -10 8 0 17 -57 34 -140 42 -75
6 -93 12 -150 47 -119 73 -193 84 -320 48z"/>
</g>
</svg>
